<svg xmlns="http://www.w3.org/2000/svg" xmlns:xlink="http://www.w3.org/1999/xlink" width="48" height="48">
	<defs>
		<path id="a" d="M22.6201172 35.6005859c.1757812 0 .4833984-.0195312.9228516-.0585937h.102539c.3417969-.0390625.7177734-.0976563 1.1279297-.1757813.8398437-.15625 1.7333984-.4785156 2.6806641-.9667968.9765625-.4980469 1.796875-1.225586 2.4609375-2.1826172.6347656-.9667969.9521484-2.1679688.9521484-3.6035157 0-1.2792968-.2197266-2.290039-.6591797-3.0322265-.4394531-.7226563-1.0791016-1.3134766-1.9189453-1.7724609-.859375-.4394532-2.109375-.8496094-3.75-1.2304688l-2.0947266-.5419922-3.0615234-.7470703c-1.1425781-.3613281-1.7138672-1.0986328-1.7138672-2.2119141 0-.8007812.3808594-1.4111328 1.1425781-1.8310546.7617188-.4199219 1.6210938-.6298829 2.578125-.6298829 2.8027344 0 4.3017578 1.069336 4.4970704 3.2080079h4.321289c0-.4003907-.0390625-.7910157-.1171875-1.171875-.0585937-.2832032-.1904297-.703125-.3955078-1.2597657-.3027344-.8203125-.7617187-1.5722656-1.3769531-2.2558593-.5957032-.6640626-1.4746094-1.2109376-2.6367188-1.640625-1.1035156-.4199219-2.446289-.6298829-4.0283203-.6298829-1.6796875 0-3.1298828.2587891-4.3505859.7763672-1.2207032.4980469-2.1484375 1.2695313-2.7832032 2.3144531-.6640624 1.0351563-.9960937 2.1826172-.9960937 3.4423829 0 1.4355468.3125 2.5878906.9375 3.4570312.5761719.8398438 1.3769531 1.4892578 2.4023437 1.9482422 1.0644532.4785156 2.2949219.8447266 3.6914063 1.0986328l2.0654297.4833985 2.2851562.6298828c.4199219.1367187.7958985.3759765 1.1279297.7177734.3222657.3222656.4833985.8154297.4833985 1.4794922 0 1.7578125-1.5771485 2.6367187-4.7314454 2.6367187-.7421874 0-1.4355468-.1220703-2.0800781-.3662109-.6640625-.2636719-1.1816406-.6494141-1.5527343-1.1572266-.4199219-.5175781-.6298829-1.171875-.6298829-1.9628906H13.171875c0 2.3632813.8105469 4.1650391 2.4316406 5.4052734 1.5820313 1.2207032 3.9208985 1.8310547 7.0166016 1.8310547zm15.8642578-.6591797v-4.3798828h-4.5263672v4.3798828h4.5263672z"/>
	</defs>
	<g fill="none" fill-rule="nonzero">
		<path fill="#E82E31" d="M0 0h48v48H0z"/>
		<use fill="#000" xlink:href="#a"/>
		<use fill="#FFF" xlink:href="#a"/>
	</g>
</svg>