<svg width="895" height="267" xmlns="http://www.w3.org/2000/svg">
<path d="M52.26 260V44l.72-.72L100.14 260h53.28L201.3 44l.72-.72V260h50.76V1.16h-78.12L127.5 205.28 81.06 1.16H1.5V260h50.76zm328.32 5.04c12.96 0 25.32-2.4 37.08-7.2 11.28-4.8 21-11.76 29.16-20.88 7.92-8.64 13.92-19.68 18-33.12h-51.84c-1.68 5.76-5.64 10.68-11.88 14.76-6.24 4.08-13.08 6.12-20.52 6.12-14.4 0-25.56-4.08-33.48-12.24-8.16-7.92-12.24-19.56-12.24-34.92h132.12v-9c0-18.96-2.88-36.48-8.64-52.56-5.76-16.08-15.24-28.92-28.44-38.52-13.2-9.6-30.84-14.4-52.92-14.4-20.88 0-38.4 4.56-52.56 13.68-13.92 8.88-24 20.88-30.24 36-6.24 15.12-9.36 30.96-9.36 47.52 0 69.84 31.92 104.76 95.76 104.76zm34.56-119.52h-78.12c3.6-27.36 16.68-41.04 39.24-41.04 10.56 0 19.44 3.6 26.64 10.8 7.2 7.92 11.28 18 12.24 30.24zM550.86 260V150.2c0-12 3.12-22.44 9.36-31.32 6.24-8.64 16.2-12.96 29.88-12.96 14.4 0 23.52 3.36 27.36 10.08 3.84 6.72 5.76 16.08 5.76 28.08V260h50.76V127.16c0-13.44-2.64-24.96-7.92-34.56-5.28-9.36-12.96-16.68-23.04-21.96-10.32-5.04-22.32-7.56-36-7.56-25.92 0-45.36 11.04-58.32 33.12V68.12h-48.6V260h50.76zm235.44 5.04c12.96 0 24.24-2.64 33.84-7.92 9.6-5.28 18-13.2 25.2-23.76V260h47.88V68.12h-50.04V179c0 10.56-1.92 18.96-5.76 25.2-3.84 6.72-8.88 11.4-15.12 14.04-6.48 2.88-12.6 4.32-18.36 4.32-21.6 0-32.4-11.88-32.4-35.64V68.12h-50.76v126.36c0 23.04 6 40.56 18 52.56s27.84 18 47.52 18z" fill-rule="nonzero" stroke="currentColor" stroke-width="2" fill="none"/>
</svg>